<?xml version="1.0" encoding="UTF-8" standalone="no"?>
<!-- Created with Inkscape (http://www.inkscape.org/) -->

<svg
   width="223mm"
   height="70.5mm"
   viewBox="0 0 223 70.499999"
   version="1.1"
   id="svg1"
   xmlns="http://www.w3.org/2000/svg"
   xmlns:svg="http://www.w3.org/2000/svg">
  <defs
     id="defs1">
    <rect
       x="-11.548556"
       y="-35.800526"
       width="24.015158"
       height="9.1913061"
       id="rect1" />
    <rect
       x="368.97638"
       y="454.4357"
       width="164.56693"
       height="73.910759"
       id="rect37" />
    <rect
       x="365.8396"
       y="416.46918"
       width="148.62234"
       height="107.79203"
       id="rect35" />
    <rect
       x="374.00568"
       y="429.53488"
       width="139.63966"
       height="118.40791"
       id="rect33" />
  </defs>
  <circle
     style="display:inline;fill:#0fafff;fill-opacity:1;stroke:#000000;stroke-width:5.858;stroke-dasharray:none;stroke-opacity:0"
     id="path30"
     cx="35.573761"
     cy="35.216377"
     r="32.213127" />
  <text
     xml:space="preserve"
     style="font-style:normal;font-variant:normal;font-weight:normal;font-stretch:normal;font-size:56.1508px;line-height:0;font-family:Corbel;-inkscape-font-specification:Corbel;text-align:start;writing-mode:lr-tb;direction:ltr;text-anchor:start;display:none;fill:#000000;fill-opacity:0;stroke:#ffffff;stroke-width:2.6;stroke-linecap:butt;stroke-linejoin:round;stroke-dasharray:none;stroke-opacity:0"
     x="17.584606"
     y="50.032593"
     id="text36"><tspan
       id="tspan36"
       style="font-style:italic;font-variant:normal;font-weight:bold;font-stretch:normal;line-height:0;font-family:'David CLM';-inkscape-font-specification:'David CLM Bold Italic';fill:#13ce13;fill-opacity:1;stroke:#000000;stroke-width:2.6;stroke-linecap:butt;stroke-linejoin:round;stroke-dasharray:none;stroke-opacity:1;paint-order:stroke fill markers"
       x="0"
       y="0"
       rotate="0 0"
       dy="0">μ</tspan></text>
  <path
     style="font-style:italic;font-weight:bold;font-size:56.1508px;line-height:0;font-family:'David CLM';-inkscape-font-specification:'David CLM Bold Italic';fill:#13ce13;stroke:#000000;stroke-width:2.6;stroke-linejoin:round;paint-order:stroke fill markers"
     d="m 17.892235,62.374466 -1.333122,-2.73711 8.605852,-40.2631 h 8.254165 l -3.7621,17.9121 c -0.44921,2.17117 -0.52407,3.81826 -0.2246,4.94127 0.29947,1.12302 1.19788,1.68453 2.69523,1.68453 1.79683,0 3.35033,-1.06687 4.66052,-3.2006 1.31019,-2.13373 2.37705,-5.10972 3.2006,-8.92798 l 2.63908,-12.40932 h 8.25417 l -4.49206,20.94425 c -0.26204,1.27275 -0.20589,2.13372 0.16845,2.58293 0.37434,0.44921 0.86098,0.67381 1.45992,0.67381 0.26204,0 0.56151,-0.0374 0.89841,-0.1123 0.37434,-0.0749 0.63638,-0.13102 0.78611,-0.16845 l -1.40377,6.56964 c -0.29947,0.14973 -0.87969,0.29947 -1.74067,0.44921 -0.82355,0.18717 -1.55351,0.28075 -2.18988,0.28075 -1.87169,0 -3.3129,-0.41177 -4.32361,-1.23532 -0.97328,-0.82354 -1.4412,-2.48935 -1.40377,-4.99742 h -0.33691 c -1.16045,2.47064 -2.37705,4.13645 -3.6498,4.99742 -1.27275,0.82355 -2.35834,1.23532 -3.25675,1.23532 -1.12301,0 -2.00271,-0.20589 -2.63908,-0.61766 -0.59895,-0.44921 -1.10431,-1.06686 -1.51608,-1.85297 h -0.16845 c -0.0375,0.37433 -0.13105,0.97327 -0.28075,1.79682 -0.1123,0.78611 -0.26204,1.60966 -0.44921,2.47064 -0.18717,0.89841 -0.35562,1.68452 -0.50536,2.35833 l -1.852972,8.75953 z"
     id="text37"
     aria-label="μ" />
  <circle
     style="display:inline;fill:#0fafff;fill-opacity:0;stroke:#000000;stroke-width:4.3;stroke-dasharray:none;stroke-opacity:1"
     id="path30-5"
     cx="35.573761"
     cy="35.216377"
     r="32.213127" />
  <path
     style="line-height:0;font-family:Consolas;-inkscape-font-specification:Consolas;white-space:pre;fill:#13ce13;stroke:#000000;stroke-width:1.17149;stroke-linejoin:round;stroke-dashoffset:222.652;paint-order:stroke fill markers"
     d="m -5.6542969,-39.003627 q -0.4277343,-0.228516 -0.8789062,-0.351563 -0.4511719,-0.128906 -0.984375,-0.128906 -0.609375,0 -1.0839844,0.216797 -0.4746094,0.216797 -0.8027344,0.615234 -0.3222656,0.392578 -0.4980469,0.949219 -0.1699222,0.556641 -0.1699222,1.230469 0,0.703125 0.1406254,1.259765 0.140625,0.556641 0.4394531,0.94336 0.2988281,0.386719 0.7617187,0.591797 0.46875,0.205078 1.1191407,0.205078 0.1113281,0 0.2402344,-0.01172 0.1289062,-0.01172 0.2578125,-0.0293 0.1289062,-0.02344 0.2460937,-0.05273 0.1230469,-0.0293 0.2167969,-0.06445 v -2.4375 h -1.5644532 v -0.861328 h 2.5957032 v 3.914062 q -0.2402344,0.111328 -0.5097656,0.199219 -0.2636719,0.08789 -0.5449219,0.146484 -0.2753906,0.05859 -0.5507813,0.08789 -0.2753906,0.0293 -0.5332031,0.0293 -0.7851563,0 -1.4179688,-0.246094 -0.6269531,-0.246094 -1.0722657,-0.726563 -0.439453,-0.486328 -0.679687,-1.207031 -0.234375,-0.720703 -0.234375,-1.669922 0,-0.943359 0.263671,-1.6875 0.263672,-0.75 0.738282,-1.265625 0.4804685,-0.521484 1.1484372,-0.791015 0.6738282,-0.275391 1.4824219,-0.275391 0.515625,0 0.9785157,0.09375 0.46875,0.08789 0.8964843,0.287109 z m 3.4746094,-0.433594 h -1.7636719 v -0.878906 h 4.58203127 v 0.878906 H -1.125 v 5.888672 h 1.76367187 v 0.890625 H -3.9433594 v -0.890625 h 1.7636719 z m 9.6679687,4.705078 q 0,0.544922 -0.2226562,0.955078 -0.2226563,0.410157 -0.6210938,0.685547 -0.3984375,0.269531 -0.9609375,0.404297 -0.5566406,0.134766 -1.2304687,0.134766 -0.3046875,0 -0.609375,-0.02344 -0.2988281,-0.02344 -0.5800781,-0.05859 -0.2753906,-0.03516 -0.5214844,-0.08203 -0.2460937,-0.04687 -0.4453125,-0.09961 v -1.007813 q 0.4394531,0.164063 0.984375,0.257813 0.5507813,0.09375 1.2480469,0.09375 0.5039062,0 0.8554687,-0.07617 0.3574219,-0.08203 0.5800781,-0.234375 0.2285157,-0.158203 0.328125,-0.380859 0.1054688,-0.222657 0.1054688,-0.509766 0,-0.310547 -0.1757813,-0.527344 -0.1699218,-0.222656 -0.4511718,-0.392578 -0.28125,-0.175781 -0.6445313,-0.316406 -0.3574219,-0.146485 -0.7324219,-0.298828 -0.375,-0.152344 -0.7382812,-0.328125 -0.3574219,-0.181641 -0.6386719,-0.421875 -0.28125,-0.246094 -0.4570312,-0.574219 -0.1699219,-0.328125 -0.1699219,-0.779297 0,-0.392578 0.1640625,-0.773437 0.1640625,-0.38086 0.5097656,-0.673829 0.3457032,-0.298828 0.8847657,-0.480468 0.5449218,-0.181641 1.2949218,-0.181641 0.1933594,0 0.4160156,0.01758 0.2285157,0.01758 0.4570313,0.05273 0.234375,0.0293 0.4570312,0.07031 0.2285157,0.04102 0.421875,0.08789 v 0.9375 q -0.4511718,-0.128907 -0.9023437,-0.19336 -0.4511719,-0.07031 -0.8730469,-0.07031 -0.8964844,0 -1.3183593,0.298828 -0.421875,0.298828 -0.421875,0.802734 0,0.310547 0.1699218,0.533203 0.1757813,0.222657 0.4570313,0.398438 0.28125,0.175781 0.6386718,0.322266 0.3632813,0.140625 0.7382813,0.292968 0.375,0.152344 0.7324219,0.333985 0.3632812,0.18164 0.6445312,0.433593 0.28125,0.246094 0.4511719,0.580079 0.1757812,0.333984 0.1757812,0.791015 z"
     id="text1"
     transform="matrix(8.2515583,0,0,7.6764674,155.50412,315.2874)"
     aria-label="GIS" />
</svg>
