<?xml version="1.0" encoding="UTF-8" standalone="no"?>
<!-- Created with Inkscape (http://www.inkscape.org/) -->

<svg
   width="70.889931mm"
   height="70.436325mm"
   viewBox="0 0 70.889928 70.436324"
   version="1.1"
   id="svg1"
   inkscape:version="1.4 (86a8ad7, 2024-10-11)"
   sodipodi:docname="muGIS_logo.svg"
   xmlns:inkscape="http://www.inkscape.org/namespaces/inkscape"
   xmlns:sodipodi="http://sodipodi.sourceforge.net/DTD/sodipodi-0.dtd"
   xmlns="http://www.w3.org/2000/svg"
   xmlns:svg="http://www.w3.org/2000/svg">
  <sodipodi:namedview
     id="namedview1"
     pagecolor="#ffffff"
     bordercolor="#000000"
     borderopacity="0.25"
     inkscape:showpageshadow="2"
     inkscape:pageopacity="0.0"
     inkscape:pagecheckerboard="true"
     inkscape:deskcolor="#d1d1d1"
     inkscape:document-units="mm"
     showgrid="true"
     inkscape:zoom="1.7318182"
     inkscape:cx="104.80315"
     inkscape:cy="101.04987"
     inkscape:window-width="1280"
     inkscape:window-height="730"
     inkscape:window-x="-6"
     inkscape:window-y="-6"
     inkscape:window-maximized="1"
     inkscape:current-layer="svg1">
    <inkscape:page
       x="0"
       y="0"
       width="70.889931"
       height="70.436325"
       id="page37"
       margin="0"
       bleed="0" />
  </sodipodi:namedview>
  <defs
     id="defs1">
    <rect
       x="368.97638"
       y="454.4357"
       width="164.56693"
       height="73.910759"
       id="rect37" />
    <rect
       x="365.8396"
       y="416.46918"
       width="148.62234"
       height="107.79203"
       id="rect35" />
    <rect
       x="374.00568"
       y="429.53488"
       width="139.63966"
       height="118.40791"
       id="rect33" />
  </defs>
  <circle
     style="display:inline;fill:#0fafff;fill-opacity:1;stroke:#000000;stroke-width:5.858;stroke-dasharray:none;stroke-opacity:0"
     id="path30"
     cx="35.573761"
     cy="35.216377"
     r="32.213127"
     inkscape:label="earth-fill" />
  <text
     xml:space="preserve"
     style="font-style:normal;font-variant:normal;font-weight:normal;font-stretch:normal;font-size:56.1508px;line-height:0;font-family:Corbel;-inkscape-font-specification:Corbel;text-align:start;writing-mode:lr-tb;direction:ltr;text-anchor:start;display:none;fill:#000000;fill-opacity:0;stroke:#ffffff;stroke-width:2.6;stroke-linecap:butt;stroke-linejoin:round;stroke-dasharray:none;stroke-opacity:0"
     x="17.584606"
     y="50.032593"
     id="text36"
     inkscape:label="mu"><tspan
       sodipodi:role="line"
       id="tspan36"
       style="font-style:italic;font-variant:normal;font-weight:bold;font-stretch:normal;line-height:0;font-family:'David CLM';-inkscape-font-specification:'David CLM Bold Italic';fill:#13ce13;fill-opacity:1;stroke:#000000;stroke-width:2.6;stroke-linecap:butt;stroke-linejoin:round;stroke-dasharray:none;stroke-opacity:1;paint-order:stroke fill markers"
       x="0"
       y="0"
       rotate="0 0"
       dy="0">μ</tspan></text>
  <path
     style="font-style:italic;font-weight:bold;font-size:56.1508px;line-height:0;font-family:'David CLM';-inkscape-font-specification:'David CLM Bold Italic';fill:#13ce13;stroke:#000000;stroke-width:2.6;stroke-linejoin:round;paint-order:stroke fill markers"
     d="m 17.892235,62.374466 -1.333122,-2.73711 8.605852,-40.2631 h 8.254165 l -3.7621,17.9121 c -0.44921,2.17117 -0.52407,3.81826 -0.2246,4.94127 0.29947,1.12302 1.19788,1.68453 2.69523,1.68453 1.79683,0 3.35033,-1.06687 4.66052,-3.2006 1.31019,-2.13373 2.37705,-5.10972 3.2006,-8.92798 l 2.63908,-12.40932 h 8.25417 l -4.49206,20.94425 c -0.26204,1.27275 -0.20589,2.13372 0.16845,2.58293 0.37434,0.44921 0.86098,0.67381 1.45992,0.67381 0.26204,0 0.56151,-0.0374 0.89841,-0.1123 0.37434,-0.0749 0.63638,-0.13102 0.78611,-0.16845 l -1.40377,6.56964 c -0.29947,0.14973 -0.87969,0.29947 -1.74067,0.44921 -0.82355,0.18717 -1.55351,0.28075 -2.18988,0.28075 -1.87169,0 -3.3129,-0.41177 -4.32361,-1.23532 -0.97328,-0.82354 -1.4412,-2.48935 -1.40377,-4.99742 h -0.33691 c -1.16045,2.47064 -2.37705,4.13645 -3.6498,4.99742 -1.27275,0.82355 -2.35834,1.23532 -3.25675,1.23532 -1.12301,0 -2.00271,-0.20589 -2.63908,-0.61766 -0.59895,-0.44921 -1.10431,-1.06686 -1.51608,-1.85297 h -0.16845 c -0.0375,0.37433 -0.13105,0.97327 -0.28075,1.79682 -0.1123,0.78611 -0.26204,1.60966 -0.44921,2.47064 -0.18717,0.89841 -0.35562,1.68452 -0.50536,2.35833 l -1.852972,8.75953 z"
     id="text37"
     inkscape:label="mu-cut"
     aria-label="μ"
     sodipodi:nodetypes="cccccsssccccssccccsccccscccccccc" />
  <circle
     style="display:inline;fill:#0fafff;fill-opacity:0;stroke:#000000;stroke-width:4.3;stroke-dasharray:none;stroke-opacity:1"
     id="path30-5"
     cx="35.573761"
     cy="35.216377"
     r="32.213127"
     inkscape:label="earth-stroke" />
</svg>
